<svg xmlns="http://www.w3.org/2000/svg" viewBox="0 0 24 24" width="24" height="24">
    <path fill="none"
        d="M12 2c-4.418 0-8 3.582-8 8s3.582 8 8 8 8-3.582 8-8-3.582-8-8-8zm0 14c-2.206 0-4-1.794-4-4s1.794-4 4-4 4 1.794 4 4-1.794 4-4 4zm-2.308-5.851c-.188.533-.695.918-1.292.918C5.448 9.051 5 9.626 5 10.318V11c0 3.584 2.926 6.5 6.5 6.5h7c3.584 0 6.5-2.916 6.5-6.5v-.682c0-.692-.448-1.267-1.051-1.267-.597 0-1.104.385-1.292.918C16.397 5.307 14.365 4 12 4c-2.365 0-4.397 1.307-5.708 3.133z"
        stroke="currentColor" stroke-width="2" />
</svg>